<svg width="25" height="25" viewBox="0 0 25 25" fill="none" xmlns="http://www.w3.org/2000/svg">
<path fill-rule="evenodd" clip-rule="evenodd" d="M17.4766 8.47169C17.7777 9.34226 17.9945 10.231 18.0657 11.1522C18.1543 12.295 18.1137 13.4298 17.8727 14.5538C17.8662 14.5848 17.8523 14.6138 17.842 14.6438C17.7664 14.644 17.6893 14.6346 17.6154 14.6461C16.991 14.7441 16.3672 14.8458 15.7434 14.9468C15.0986 15.0513 14.4529 15.1516 13.8092 15.2631C13.5811 15.3025 13.2988 15.2554 13.2067 15.5708C13.2041 15.5794 13.1779 15.5809 13.1627 15.5858L13.1938 13.7013L13.1621 9.15401L13.4626 9.10244C13.954 9.02201 14.4454 8.94045 14.9371 8.86226C15.524 8.76907 16.1114 8.67851 16.6986 8.58757C16.9577 8.54726 17.217 8.51032 17.4766 8.47169V8.47169Z" fill="#439934"/>
<path fill-rule="evenodd" clip-rule="evenodd" d="M12.5422 21.0796C12.2253 20.8071 11.8972 20.5467 11.5934 20.2602C9.95847 18.7186 8.76262 16.9041 8.17369 14.7166C8.01146 14.1145 7.90324 13.5027 7.86854 12.8806C7.84416 12.4452 7.8089 12.0059 7.83966 11.5728C7.92162 10.4208 8.08817 9.27982 8.42614 8.1702L8.44471 8.14432C8.47753 8.18801 8.5248 8.22663 8.54149 8.27595C8.8714 9.2472 9.19887 10.2192 9.52466 11.1918C10.5483 14.248 11.5707 17.305 12.5961 20.3605C12.6161 20.4201 12.6681 20.4691 12.7054 20.5229L12.5422 21.0796V21.0796Z" fill="#45A538"/>
<path fill-rule="evenodd" clip-rule="evenodd" d="M17.4766 8.47169C17.2171 8.51032 16.9575 8.54726 16.6985 8.58719C16.1112 8.67813 15.5238 8.76869 14.9369 8.86188C14.4452 8.94007 13.9538 9.02163 13.4624 9.10207L13.1619 9.15363L13.1597 8.95769C13.1497 8.79663 13.1327 8.63576 13.1308 8.47469C13.1178 7.44757 13.1098 6.42044 13.097 5.39332C13.0891 4.75038 13.0773 4.10763 13.0642 3.46488C13.0561 3.06551 13.0475 2.66594 13.0295 2.26713C13.0197 2.05282 12.9852 1.83963 12.9712 1.62532C12.9633 1.50213 12.9742 1.37801 12.9766 1.25426C13.1298 1.55107 13.2797 1.85013 13.4372 2.14469C13.6861 2.61044 14.0826 2.95357 14.4395 3.32801C15.8505 4.80776 16.8523 6.52826 17.4766 8.47169V8.47169Z" fill="#46A037"/>
<path fill-rule="evenodd" clip-rule="evenodd" d="M13.1625 15.5856C13.1777 15.5808 13.2041 15.5793 13.2066 15.5706C13.2986 15.2553 13.5809 15.3023 13.809 15.2629C14.4527 15.1516 15.0984 15.0511 15.7432 14.9466C16.367 14.8456 16.9909 14.7439 17.6152 14.6459C17.6891 14.6343 17.7662 14.6438 17.8418 14.6436C17.7251 15.0599 17.6332 15.4851 17.4853 15.8899C17.3172 16.3491 17.1139 16.7973 16.898 17.2366C16.5748 17.8918 16.1748 18.5063 15.7065 19.0671C15.3466 19.4999 14.9454 19.8998 14.5433 20.2949C14.321 20.5133 14.059 20.6913 13.8152 20.8876L13.752 20.8444L13.5243 20.6498L13.2887 20.1336C13.1278 19.5315 13.04 18.9121 13.0273 18.289L13.0316 18.1838L13.0636 17.7289C13.0743 17.5737 13.0886 17.4186 13.0951 17.263C13.1193 16.7039 13.1403 16.1448 13.1625 15.5856V15.5856Z" fill="#409433"/>
<path fill-rule="evenodd" clip-rule="evenodd" d="M13.1625 15.5856C13.1404 16.1448 13.1193 16.7039 13.0955 17.2632C13.089 17.4188 13.0747 17.5739 13.064 17.7291L12.9205 17.7833C12.6019 16.8454 12.283 15.9175 11.9711 14.9871C11.4554 13.4479 10.9458 11.9063 10.4307 10.3668C10.0148 9.1241 9.59588 7.8824 9.17412 6.64169C9.15442 6.58357 9.09778 6.53819 9.0584 6.48682L9.97667 4.79894C10.0082 4.85369 10.0498 4.90488 10.0697 4.96376C10.495 6.2204 10.9181 7.47778 11.3391 8.73588C11.886 10.3728 12.4295 12.0109 12.9761 13.648C12.9978 13.7134 13.0338 13.7738 13.0681 13.8471L13.1938 13.7009L13.1625 15.5856V15.5856Z" fill="#4FAA41"/>
<path fill-rule="evenodd" clip-rule="evenodd" d="M9.05858 6.48701C9.09797 6.53838 9.15442 6.58376 9.1743 6.64188C9.59607 7.88259 10.0149 9.12428 10.4309 10.3669C10.946 11.9065 11.4555 13.4481 11.9713 14.9873C12.283 15.9175 12.6019 16.8456 12.9207 17.7835L13.0642 17.7293L13.0321 18.1842L13.0031 18.289C12.9532 18.787 12.9112 19.2861 12.8504 19.783C12.8198 20.032 12.7549 20.2765 12.7056 20.5231C12.6685 20.4693 12.6163 20.4203 12.5962 20.3607C11.5709 17.305 10.5485 14.2482 9.52484 11.1919C9.19917 10.2193 8.87145 9.24738 8.54168 8.27613C8.52499 8.22682 8.47791 8.18819 8.4449 8.14451L9.05858 6.48701V6.48701Z" fill="#4AA73C"/>
<path fill-rule="evenodd" clip-rule="evenodd" d="M13.1936 13.7011L13.068 13.8473C13.0336 13.774 12.9976 13.7134 12.9759 13.6482C12.4295 12.0111 11.8858 10.3729 11.3389 8.73607C10.9179 7.47797 10.4948 6.22059 10.0695 4.96394C10.0498 4.90507 10.0082 4.85369 9.97648 4.79913L11.1121 3.30569C11.1479 3.35351 11.199 3.39607 11.2175 3.44988C11.5328 4.37257 11.8453 5.29638 12.1559 6.22076C12.446 7.08401 12.7319 7.94857 13.0254 8.81069C13.0451 8.86844 13.1135 8.90932 13.1593 8.95807L13.1615 9.15401C13.1724 10.6694 13.1831 12.1853 13.1936 13.7011V13.7011Z" fill="#57AE47"/>
<path fill-rule="evenodd" clip-rule="evenodd" d="M13.1597 8.95769C13.1139 8.90894 13.0454 8.86807 13.0257 8.81032C12.7322 7.94819 12.4464 7.08363 12.1562 6.22038C11.8456 5.29601 11.5332 4.37238 11.2179 3.44951C11.1993 3.39569 11.1483 3.35313 11.1125 3.30532C11.4818 2.94382 11.8396 2.56938 12.2238 2.22457C12.5653 1.91819 12.8399 1.58969 12.8524 1.10557C12.853 1.08551 12.8635 1.06544 12.8796 1.00919L12.977 1.25407C12.9745 1.37801 12.9635 1.50194 12.9715 1.62513C12.9856 1.83944 13.0201 2.05263 13.0299 2.26694C13.0479 2.66576 13.0565 3.06532 13.0646 3.46469C13.0775 4.10744 13.0893 4.75019 13.0974 5.39313C13.11 6.42026 13.1182 7.44738 13.1312 8.47451C13.1327 8.63594 13.1495 8.79663 13.1597 8.95769V8.95769Z" fill="#60B24F"/>
<path fill-rule="evenodd" clip-rule="evenodd" d="M12.7052 20.5229C12.7545 20.2763 12.8194 20.0316 12.85 19.7828C12.911 19.2861 12.9528 18.7868 13.0027 18.2888L13.0151 18.2869L13.0274 18.289C13.0402 18.9121 13.128 19.5315 13.2889 20.1336C13.2559 20.1771 13.2092 20.2159 13.1917 20.2651C13.0554 20.6494 12.9269 21.0368 12.7898 21.4212C12.7711 21.4737 12.7189 21.5146 12.6821 21.5607L12.542 21.0796L12.7052 20.5229V20.5229Z" fill="#A9AA88"/>
<path fill-rule="evenodd" clip-rule="evenodd" d="M12.6823 21.5609C12.7191 21.5148 12.7714 21.4739 12.79 21.4214C12.9271 21.037 13.0558 20.6498 13.1919 20.2653C13.2094 20.2161 13.2559 20.1773 13.2891 20.1338L13.5245 20.6502C13.4779 20.7162 13.4138 20.7756 13.3879 20.8491L12.937 22.1727C12.9185 22.2258 12.8551 22.2633 12.8127 22.3081L12.6823 21.5609V21.5609Z" fill="#B6B598"/>
<path fill-rule="evenodd" clip-rule="evenodd" d="M12.8127 22.3079C12.8553 22.2633 12.9185 22.2256 12.937 22.1725L13.3879 20.8489C13.4136 20.7756 13.4779 20.716 13.5245 20.65L13.7523 20.8444C13.6422 20.9532 13.5811 21.0788 13.6179 21.2376L13.5486 21.4641C13.5171 21.5029 13.4716 21.5367 13.456 21.5811C13.2986 22.0317 13.1484 22.4847 12.9899 22.9353C12.9699 22.9924 12.9142 23.0373 12.8748 23.0875C12.8543 22.8274 12.8335 22.5679 12.8127 22.3079V22.3079Z" fill="#C2C1A7"/>
<path fill-rule="evenodd" clip-rule="evenodd" d="M12.875 23.0875C12.9142 23.0371 12.9699 22.9923 12.9901 22.9353C13.1486 22.4849 13.2988 22.0319 13.4562 21.5811C13.4718 21.5369 13.5171 21.5029 13.5488 21.4641L13.4534 22.5038C13.4279 22.5333 13.3909 22.5589 13.3787 22.5933C13.2709 22.8959 13.1692 23.2008 13.061 23.5034C13.0387 23.5658 12.9959 23.6209 12.9625 23.6793C12.9329 23.6404 12.8798 23.6029 12.8774 23.5624C12.8678 23.4048 12.8744 23.2459 12.875 23.0875V23.0875Z" fill="#CECDB7"/>
<path fill-rule="evenodd" clip-rule="evenodd" d="M12.9624 23.6793C12.9957 23.6208 13.0385 23.5656 13.0608 23.5034C13.1692 23.2009 13.2707 22.8961 13.3785 22.5933C13.3907 22.5589 13.4279 22.5334 13.4532 22.5038L13.4554 23.1863L13.227 23.7721L12.9624 23.6793V23.6793Z" fill="#DBDAC7"/>
<path fill-rule="evenodd" clip-rule="evenodd" d="M13.227 23.7723L13.4554 23.1865L13.5025 23.8795L13.227 23.7723V23.7723Z" fill="#EBE9DC"/>
<path fill-rule="evenodd" clip-rule="evenodd" d="M13.6179 21.2378C13.5811 21.079 13.6421 20.9532 13.7523 20.8446L13.8155 20.8878L13.6179 21.2378V21.2378Z" fill="#CECDB7"/>
<path fill-rule="evenodd" clip-rule="evenodd" d="M13.0274 18.2892L13.0151 18.2871L13.0027 18.289L13.0317 18.1842L13.0274 18.2892V18.2892Z" fill="#4FAA41"/>
</svg>
