<svg width="50" height="51" viewBox="0 0 50 51" fill="none" xmlns="http://www.w3.org/2000/svg">
<path d="M45.3465 3.42009C44.6489 5.07566 43.7559 6.64382 42.6861 8.09191C37.9987 3.45739 31.6432 0.853621 25.0162 0.852825C11.3111 0.852825 0.0329285 12.0196 0.0329285 25.5931C0.0327828 28.945 0.720578 32.2619 2.05463 35.343C3.38868 38.424 5.34121 41.205 7.79388 43.5174L8.71531 44.3258C13.2185 48.082 18.9182 50.1437 24.8084 50.1471C37.8388 50.1471 48.7925 40.0459 49.7201 27.1718C50.4015 20.8697 48.5329 12.8988 45.3465 3.42009V3.42009ZM11.3434 43.6583C11.1428 43.9028 10.8896 44.1 10.6022 44.2354C10.3149 44.3709 10.0006 44.4412 9.68227 44.4413C8.50791 44.4413 7.54718 43.4851 7.54718 42.3233C7.54718 41.1619 8.51414 40.2056 9.68227 40.2056C10.1687 40.2056 10.6492 40.3723 11.0255 40.6807C11.9403 41.4121 12.0831 42.7533 11.3434 43.6583ZM45.2429 36.2525C39.0782 44.3836 25.9116 41.6431 17.4693 42.0346C17.4693 42.0346 15.9704 42.1246 14.4649 42.3683C14.4649 42.3683 15.0291 42.1308 15.7626 41.8548C21.6873 39.8141 24.4905 39.4161 28.0918 37.5872C34.873 34.173 41.5763 26.703 42.9717 18.9311C40.3891 26.4077 32.5628 32.8318 25.4314 35.4437C20.5453 37.228 11.7197 38.9607 11.7197 38.9607L11.3629 38.7744C5.35411 35.8803 5.172 23.0001 16.0934 18.8414C20.876 17.0186 25.4509 18.0199 30.6164 16.8004C36.1321 15.5042 42.511 11.4095 45.1064 6.07012C48.0135 14.6123 51.5112 27.9864 45.2426 36.2525H45.2429Z" fill="#77BC1F"/>
</svg>
