<svg width="51" height="51" viewBox="0 0 51 51" fill="none" xmlns="http://www.w3.org/2000/svg">
<path d="M4.25682 0.967369H46.6687C48.8376 0.967369 50.5957 2.70675 50.5957 4.85239V46.8106C50.5957 48.9562 48.8376 50.6956 46.6687 50.6956H4.25682C2.08798 50.6956 0.329788 48.9562 0.329788 46.8106V4.85239C0.329788 2.70675 2.08798 0.967369 4.25682 0.967369Z" fill="#3178C6"/>
<path d="M29.8842 39.9098V45.2751C30.7662 45.7222 31.8094 46.0575 33.0137 46.2811C34.2179 46.5047 35.4871 46.6164 36.8215 46.6164C38.1217 46.6164 39.3572 46.4934 40.5274 46.2475C41.6977 46.0016 42.724 45.5963 43.6058 45.032C44.4878 44.4676 45.1861 43.7298 45.7007 42.8187C46.2151 41.9079 46.4724 40.7818 46.4724 39.4405C46.4724 38.4681 46.3253 37.6157 46.0314 36.8836C45.7374 36.1515 45.3133 35.5003 44.7592 34.9304C44.2053 34.3603 43.5408 33.849 42.7664 33.3962C41.9918 32.9436 41.1183 32.5161 40.1457 32.1138C39.4334 31.823 38.7946 31.5409 38.2291 31.267C37.6638 30.9931 37.1832 30.7138 36.7875 30.4286C36.3917 30.1437 36.0864 29.8418 35.8716 29.5232C35.6567 29.2047 35.5493 28.8443 35.5493 28.4418C35.5493 28.073 35.6454 27.7406 35.8376 27.4444C36.0298 27.1481 36.3014 26.8939 36.6519 26.6815C37.0023 26.469 37.432 26.3043 37.9409 26.1868C38.4496 26.0695 39.0151 26.0108 39.637 26.0108C40.0894 26.0108 40.5671 26.0444 41.0702 26.1114C41.5734 26.1784 42.0794 26.2818 42.5883 26.4216C43.0971 26.5613 43.5917 26.7373 44.0724 26.9498C44.5528 27.1621 44.9968 27.408 45.4038 27.6874V22.6743C44.5784 22.3614 43.6765 22.1295 42.6985 21.9785C41.7205 21.8276 40.5981 21.7522 39.3317 21.7522C38.0426 21.7522 36.8215 21.8892 35.6681 22.1631C34.5148 22.4368 33.4998 22.8643 32.6235 23.4455C31.7472 24.0269 31.0547 24.7674 30.5457 25.6672C30.037 26.5669 29.7825 27.6427 29.7825 28.8946C29.7825 30.4929 30.2488 31.8566 31.1819 32.9856C32.1148 34.1144 33.5308 35.0701 35.4305 35.8525C36.1769 36.1544 36.8724 36.4504 37.5168 36.7412C38.1614 37.0318 38.7183 37.3335 39.1875 37.6464C39.6568 37.9594 40.0271 38.3003 40.2985 38.6692C40.5698 39.038 40.7055 39.4572 40.7055 39.9267C40.7055 40.2731 40.6207 40.5946 40.4511 40.8908C40.2816 41.1868 40.0242 41.444 39.6794 41.662C39.3346 41.8799 38.9048 42.0503 38.3903 42.1733C37.8759 42.2962 37.2737 42.3578 36.5839 42.3578C35.408 42.3578 34.2434 42.1538 33.09 41.7457C31.9365 41.3378 30.8679 40.7259 29.8842 39.9098ZM20.845 26.5584H27.819V22.1407H8.3802V26.5584H15.3202V46.2279H20.845V26.5584Z" fill="white"/>
</svg>
