<svg width="25" height="26" viewBox="0 0 25 26" fill="none" xmlns="http://www.w3.org/2000/svg">
<path d="M3.01835 5.94405C2.97225 4.61892 4.00486 3.39703 5.4008 3.39703H19.7045C21.1004 3.39703 22.133 4.61892 22.0869 5.94405C22.0426 7.21689 22.1001 8.86578 22.5152 10.2102C22.9316 11.5588 23.6338 12.4111 24.7839 12.5207V13.7627C23.6338 13.8723 22.9316 14.7246 22.5152 16.0732C22.1001 17.4176 22.0426 19.0665 22.0869 20.3394C22.133 21.6645 21.1004 22.8862 19.7045 22.8862H5.4008C4.00486 22.8862 2.97225 21.6643 3.01835 20.3394C3.06269 19.0665 3.00512 17.4176 2.58986 16.0732C2.17363 14.7248 1.46953 13.8723 0.31944 13.7627V12.5207C1.46953 12.4113 2.17363 11.5588 2.58986 10.2102C3.00512 8.86578 3.0625 7.21689 3.01835 5.94405V5.94405Z" fill="url(#paint0_linear_23_133)"/>
<g filter="url(#filter0_d_23_133)">
<path d="M13.1567 18.3931C15.4166 18.3931 16.7784 17.2869 16.7784 15.4623C16.7784 14.0832 15.8068 13.0847 14.364 12.9266V12.8692C15.424 12.6968 16.2558 11.7127 16.2558 10.6136C16.2558 9.04768 15.0191 8.02761 13.1346 8.02761H8.89452V18.3931H13.1567ZM10.5435 9.34217H12.7371C13.9297 9.34217 14.6069 9.87372 14.6069 10.8363C14.6069 11.8635 13.8192 12.4382 12.3912 12.4382H10.5435V9.34217ZM10.5435 17.0785V13.6665H12.7224C14.283 13.6665 15.0927 14.2411 15.0927 15.3617C15.0927 16.4823 14.3051 17.0785 12.8181 17.0785H10.5435Z" fill="url(#paint1_linear_23_133)"/>
<path d="M13.1567 18.3931C15.4166 18.3931 16.7784 17.2869 16.7784 15.4623C16.7784 14.0832 15.8068 13.0847 14.364 12.9266V12.8692C15.424 12.6968 16.2558 11.7127 16.2558 10.6136C16.2558 9.04768 15.0191 8.02761 13.1346 8.02761H8.89452V18.3931H13.1567ZM10.5435 9.34217H12.7371C13.9297 9.34217 14.6069 9.87372 14.6069 10.8363C14.6069 11.8635 13.8192 12.4382 12.3912 12.4382H10.5435V9.34217ZM10.5435 17.0785V13.6665H12.7224C14.283 13.6665 15.0927 14.2411 15.0927 15.3617C15.0927 16.4823 14.3051 17.0785 12.8181 17.0785H10.5435Z" stroke="white" stroke-width="0.24566"/>
</g>
<defs>
<filter id="filter0_d_23_133" x="4.84113" y="4.95687" width="15.9907" height="18.4723" filterUnits="userSpaceOnUse" color-interpolation-filters="sRGB">
<feFlood flood-opacity="0" result="BackgroundImageFix"/>
<feColorMatrix in="SourceAlpha" type="matrix" values="0 0 0 0 0 0 0 0 0 0 0 0 0 0 0 0 0 0 127 0" result="hardAlpha"/>
<feOffset dy="0.98264"/>
<feGaussianBlur stdDeviation="1.96528"/>
<feColorMatrix type="matrix" values="0 0 0 0 0 0 0 0 0 0 0 0 0 0 0 0 0 0 0.15 0"/>
<feBlend mode="normal" in2="BackgroundImageFix" result="effect1_dropShadow_23_133"/>
<feBlend mode="normal" in="SourceGraphic" in2="effect1_dropShadow_23_133" result="shape"/>
</filter>
<linearGradient id="paint0_linear_23_133" x1="3.95479" y1="3.91282" x2="25.3273" y2="20.8836" gradientUnits="userSpaceOnUse">
<stop stop-color="#9013FE"/>
<stop offset="1" stop-color="#6610F2"/>
</linearGradient>
<linearGradient id="paint1_linear_23_133" x1="9.64048" y1="8.70973" x2="14.4165" y2="16.7898" gradientUnits="userSpaceOnUse">
<stop stop-color="white"/>
<stop offset="1" stop-color="#F1E5FC"/>
</linearGradient>
</defs>
</svg>
