<svg width="28" height="25" viewBox="0 0 28 25" fill="none" xmlns="http://www.w3.org/2000/svg">
<path d="M13.9422 15.0028C15.2942 15.0028 16.3902 13.9071 16.3902 12.5556C16.3902 11.204 15.2942 10.1083 13.9422 10.1083C12.5903 10.1083 11.4943 11.204 11.4943 12.5556C11.4943 13.9071 12.5903 15.0028 13.9422 15.0028Z" fill="#61DAFB"/>
<path d="M23.2402 8.51978C22.7677 8.34804 22.2739 8.17631 21.7585 8.02604C21.8873 7.51083 21.9947 6.99563 22.0806 6.50189C22.5315 3.66826 22.0377 1.67183 20.6634 0.899026C20.2554 0.66289 19.8044 0.555555 19.2891 0.555555C17.786 0.555555 15.8748 1.67183 13.9422 3.53946C12.0097 1.67183 10.0985 0.555555 8.59541 0.555555C8.08005 0.555555 7.62911 0.66289 7.22112 0.899026C5.84684 1.6933 5.35295 3.68972 5.80389 6.50189C5.88978 6.99563 5.99715 7.51083 6.12599 8.02604C5.61063 8.17631 5.11675 8.32657 4.64433 8.51978C1.96018 9.55019 0.5 10.967 0.5 12.5556C0.5 14.1441 1.98165 15.5609 4.64433 16.5913C5.11675 16.7631 5.61063 16.9348 6.12599 17.0851C5.99715 17.6003 5.88978 18.1155 5.80389 18.6092C5.35295 21.4429 5.84684 23.4393 7.22112 24.2121C7.62911 24.4482 8.08005 24.5556 8.59541 24.5556C10.12 24.5556 12.0311 23.4393 13.9422 21.5717C15.8748 23.4393 17.786 24.5556 19.2891 24.5556C19.8044 24.5556 20.2554 24.4482 20.6634 24.2121C22.0377 23.4178 22.5315 21.4214 22.0806 18.6092C21.9947 18.1155 21.8873 17.6003 21.7585 17.0851C22.2739 16.9348 22.7677 16.7845 23.2402 16.5913C25.9243 15.5609 27.3845 14.1441 27.3845 12.5556C27.3845 10.967 25.9243 9.55019 23.2402 8.51978V8.51978ZM20.0621 1.97237C20.9425 2.48758 21.2431 4.07613 20.8781 6.33015C20.8137 6.78096 20.7063 7.25323 20.5775 7.74697C19.4609 7.48937 18.2798 7.31763 17.0344 7.2103C16.3043 6.17988 15.5527 5.25681 14.8012 4.4196C16.3902 2.85251 18.0007 1.77917 19.3106 1.77917C19.5897 1.77917 19.8474 1.84357 20.0621 1.97237V1.97237ZM17.6571 14.7022C17.2706 15.3892 16.8197 16.0761 16.3472 16.7631C15.5527 16.8275 14.7582 16.8489 13.9422 16.8489C13.1048 16.8489 12.3103 16.8275 11.5372 16.7631C11.0648 16.0761 10.6354 15.3892 10.2488 14.7022C9.84086 13.9938 9.45434 13.264 9.11077 12.5556C9.45434 11.8471 9.84086 11.1173 10.2488 10.4089C10.6354 9.72192 11.0863 9.03498 11.5587 8.34804C12.3532 8.28364 13.1477 8.26217 13.9637 8.26217C14.8012 8.26217 15.5957 8.28364 16.3687 8.34804C16.8411 9.03498 17.2706 9.72192 17.6571 10.4089C18.0651 11.1173 18.4516 11.8471 18.7952 12.5556C18.4302 13.264 18.0651 13.9724 17.6571 14.7022ZM19.4394 13.9938C19.7615 14.7452 20.0192 15.4751 20.2554 16.2049C19.5253 16.3767 18.7523 16.5055 17.9363 16.6128C18.1939 16.2049 18.4731 15.7756 18.7093 15.3248C18.967 14.874 19.2032 14.4232 19.4394 13.9938ZM13.9422 19.8114C13.4269 19.2532 12.933 18.6522 12.4606 18.0296C12.9545 18.0511 13.4484 18.0725 13.9422 18.0725C14.4361 18.0725 14.93 18.0511 15.4239 18.0296C14.9515 18.6522 14.4576 19.2532 13.9422 19.8114ZM9.94822 16.5913C9.13224 16.484 8.3592 16.3552 7.62911 16.1835C7.86532 15.4751 8.123 14.7237 8.4451 13.9724C8.6813 14.4017 8.91751 14.8525 9.17519 15.2819C9.43287 15.7541 9.69055 16.162 9.94822 16.5913V16.5913ZM8.4451 11.1173C8.123 10.3659 7.86532 9.63606 7.62911 8.90618C8.3592 8.73445 9.13224 8.60564 9.94822 8.49831C9.69055 8.90618 9.41139 9.33552 9.17519 9.78632C8.91751 10.2371 8.6813 10.6879 8.4451 11.1173V11.1173ZM13.9422 5.29974C14.4576 5.85788 14.9515 6.45895 15.4239 7.08149C14.93 7.06003 14.4361 7.03856 13.9422 7.03856C13.4484 7.03856 12.9545 7.06003 12.4606 7.08149C12.933 6.45895 13.4269 5.85788 13.9422 5.29974ZM18.7093 9.80779L17.9363 8.51978C18.7523 8.62711 19.5253 8.75591 20.2554 8.92765C20.0192 9.63606 19.7615 10.3874 19.4394 11.1387C19.2032 10.6879 18.967 10.2371 18.7093 9.80779ZM7.00639 6.33015C6.64135 4.07613 6.94197 2.48758 7.82237 1.97237C8.03711 1.84357 8.29478 1.77917 8.57394 1.77917C9.86233 1.77917 11.4728 2.83105 13.0833 4.4196C12.3318 5.23534 11.5802 6.17988 10.8501 7.2103C9.60465 7.31763 8.42362 7.51083 7.30702 7.74697C7.17818 7.25323 7.09228 6.78096 7.00639 6.33015V6.33015ZM1.7025 12.5556C1.7025 11.5466 2.92648 10.4733 5.0738 9.67899C5.50326 9.50725 5.97568 9.35699 6.44809 9.22819C6.79166 10.3015 7.22112 11.4393 7.73648 12.577C7.22112 13.7148 6.77019 14.831 6.44809 15.9044C3.48478 15.0457 1.7025 13.7577 1.7025 12.5556ZM7.82237 23.1387C6.94197 22.6235 6.64135 21.035 7.00639 18.781C7.07081 18.3302 7.17818 17.8579 7.30702 17.3641C8.42362 17.6217 9.60465 17.7935 10.8501 17.9008C11.5802 18.9312 12.3318 19.8543 13.0833 20.6915C11.4943 22.2586 9.8838 23.3319 8.57394 23.3319C8.29478 23.3319 8.03711 23.2675 7.82237 23.1387ZM20.8781 18.781C21.2431 21.035 20.9425 22.6235 20.0621 23.1387C19.8474 23.2675 19.5897 23.3319 19.3106 23.3319C18.0222 23.3319 16.4117 22.2801 14.8012 20.6915C15.5527 19.8758 16.3043 18.9312 17.0344 17.9008C18.2798 17.7935 19.4609 17.6003 20.5775 17.3641C20.7063 17.8579 20.7922 18.3302 20.8781 18.781V18.781ZM22.8107 15.4321C22.3812 15.6039 21.9088 15.7541 21.4364 15.8829C21.0928 14.8096 20.6634 13.6718 20.148 12.5341C20.6634 11.3963 21.1143 10.2801 21.4364 9.20672C24.3997 10.0654 26.182 11.3534 26.182 12.5556C26.182 13.5645 24.9365 14.6378 22.8107 15.4321Z" fill="#61DAFB"/>
</svg>
