<svg width="62" height="61" viewBox="0 0 62 61" fill="none" xmlns="http://www.w3.org/2000/svg">
<path d="M60.4585 24.8289C58.3871 23.6375 55.6414 23.4945 53.3291 24.1617C53.0401 21.6836 51.4023 19.5391 49.4754 18.0141L48.7047 17.3945L48.0302 18.157C46.7296 19.6344 46.3442 22.1125 46.5369 24.0188C46.6814 25.4008 47.115 26.8305 47.9821 27.9742C47.3077 28.3555 46.5851 28.8797 45.9107 29.118C44.5619 29.5945 43.0686 30.0711 41.6234 30.0711H38.3959V23.3516H32.1336V11.4375H24.9079V17.1563H12.865V23.3516H6.60273V30.0234H1.20751L1.11117 30.7383C0.870312 33.7883 1.25568 36.743 2.55632 39.5547L3.0862 40.6031L3.13437 40.6984C6.93993 47.0844 13.5876 49.7531 20.8615 49.7531C34.9276 49.7531 46.5369 43.5102 51.8358 30.4047C55.4005 30.5953 59.0615 29.5469 60.7957 26.1633L61.2293 25.3055L60.4585 24.8289V24.8289ZM13.8285 18.5859H18.6456V23.8281H13.8285V18.5859ZM20.1389 39.65C20.1389 40.4602 19.4645 41.1273 18.6456 41.1273C17.8267 41.1273 17.1523 40.4602 17.1523 39.65C17.1523 38.8398 17.8267 38.1727 18.6456 38.1727C19.4645 38.2203 20.1389 38.8398 20.1389 39.65ZM13.8285 24.7813H18.6456V30.0234H13.8285V24.7813ZM7.56616 24.7813H12.865V30.0234H7.56616V24.7813ZM20.9097 48.7047C13.2986 48.657 9.20399 46.1313 5.83198 42.7953C6.84358 42.843 7.80701 42.8906 8.6741 42.8906C9.44485 42.8906 10.2156 42.8906 10.9382 42.843C12.8169 42.7477 14.4547 42.5094 15.8035 42.1281C16.9114 44.6539 18.9346 46.9891 22.5475 48.7047H20.9097ZM24.9079 30.0234H19.609V24.7813H24.9079V30.0234ZM24.9079 23.8281H19.609V18.5859H24.9079V23.8281ZM31.1702 30.0234H25.8713V24.7813H31.1702V30.0234ZM31.1702 23.8281H25.8713V18.5859H31.1702V23.8281ZM31.1702 17.6328H25.8713V12.3906H31.1702V17.6328ZM37.4325 30.0234H32.1336V24.7813H37.4325V30.0234ZM19.031 38.6969C18.9346 38.6492 18.7901 38.6016 18.6456 38.6016C18.0676 38.6016 17.5858 39.0781 17.5858 39.65C17.5858 40.2219 18.0676 40.6984 18.6456 40.6984C19.2237 40.6984 19.7054 40.2219 19.7054 39.65C19.7054 39.507 19.6572 39.3641 19.609 39.2688C19.5127 39.4117 19.4164 39.507 19.2237 39.507C18.9828 39.507 18.7901 39.3164 18.7901 39.0781C18.8383 38.8875 18.9346 38.7445 19.031 38.6969V38.6969Z" fill="#019BC6"/>
</svg>
