<svg width="25" height="25" viewBox="0 0 25 25" fill="none" xmlns="http://www.w3.org/2000/svg">
<path d="M22.1227 6.2007L13.0637 0.988195C12.9137 0.894445 12.7074 0.856945 12.4823 0.856945C12.2572 0.856945 12.0509 0.913195 11.9009 0.988195L2.89823 6.21944C2.57939 6.40694 2.35432 6.8757 2.35432 7.23195V17.6757C2.35432 17.8819 2.39184 18.1257 2.54188 18.3319L22.5728 6.70695C22.4603 6.48195 22.2915 6.3132 22.1227 6.2007V6.2007Z" fill="#9B4F96"/>
<path d="M2.48561 18.3132C2.57939 18.4632 2.71068 18.5944 2.84197 18.6694L11.8821 23.9007C12.0322 23.9944 12.2385 24.0319 12.4636 24.0319C12.6886 24.0319 12.8949 23.9757 13.045 23.9007L22.0476 18.6694C22.3665 18.4819 22.5915 18.0132 22.5915 17.6569V7.21319C22.5915 7.04444 22.5728 6.85694 22.479 6.68819L2.48561 18.3132V18.3132Z" fill="#68217A"/>
<path d="M16.4772 14.7132C15.6895 16.1007 14.1891 17.0382 12.4823 17.0382C9.95032 17.0382 7.88721 14.9757 7.88721 12.4444C7.88721 9.91319 9.95032 7.85069 12.4823 7.85069C14.1891 7.85069 15.6895 8.78819 16.4772 10.1944L18.9155 8.78819C17.6401 6.55694 15.2394 5.03819 12.4823 5.03819C8.39361 5.03819 5.07388 8.35694 5.07388 12.4444C5.07388 16.5319 8.39361 19.8507 12.4823 19.8507C15.2206 19.8507 17.6213 18.3507 18.8967 16.1382L16.4772 14.7132V14.7132ZM18.6716 12.8569L18.8404 12.0507H18.0527V11.1694H19.0092L19.2343 10.0069H20.1533L19.9283 11.1507H20.641L20.866 10.0069H21.7663L21.5412 11.1507H21.9914V12.0319H21.3724L21.2036 12.8382H21.9914V13.7194H21.0348L20.8098 14.8444H19.8908L20.1158 13.7194H19.4031L19.178 14.8444H18.2778L18.5028 13.7194H18.0527V12.8382H18.6716V12.8569ZM19.5719 12.8569H20.2846L20.4534 12.0507H19.7407L19.5719 12.8569Z" fill="white"/>
</svg>
