<svg width="25" height="25" viewBox="0 0 25 25" fill="none" xmlns="http://www.w3.org/2000/svg">
<path d="M4.10883 21.8424L2.22314 0.697863H22.9443L21.0567 21.8392L12.5711 24.191L4.10883 21.8424V21.8424Z" fill="#1572B6"/>
<path d="M12.5839 22.3936L19.4408 20.4931L21.0539 2.42674H12.5839V22.3936Z" fill="#33A9DC"/>
<path d="M12.5839 10.0873H16.0166L16.2536 7.43174H12.5839V4.83843H19.0887L19.0264 5.53424L18.3888 12.6806H12.5839V10.0873Z" fill="white"/>
<path d="M12.5993 16.8223L12.5879 16.8257L9.69894 16.0459L9.5142 13.9776H6.91055L7.27385 18.0495L12.5875 19.5238L12.5993 19.5205V16.8223V16.8223Z" fill="#EBEBEB"/>
<path d="M15.796 12.571L15.4835 16.0439L12.5903 16.8246V19.5228L17.9082 18.0494L17.9473 17.6112L18.3985 12.571H15.796Z" fill="white"/>
<path d="M12.5927 4.83843V7.43174H6.32686L6.27491 6.84899L6.15675 5.53424L6.09467 4.83843H12.5927V4.83843ZM12.5839 10.0877V12.681H9.73136L9.67941 12.0982L9.56106 10.7835L9.49917 10.0877H12.5839V10.0877Z" fill="#EBEBEB"/>
</svg>
