<svg width="26" height="26" viewBox="0 0 26 26" fill="none" xmlns="http://www.w3.org/2000/svg">
<path d="M23.0626 19.5736C21.7278 19.5372 20.7084 19.6615 19.8368 20.0288C19.5892 20.1332 19.194 20.1361 19.1535 20.4462C19.2897 20.5888 19.3109 20.8019 19.419 20.9773C19.6271 21.3137 19.9784 21.7652 20.2919 22.0016C20.6347 22.2602 20.9877 22.5365 21.3549 22.7603C22.008 23.1584 22.7372 23.3859 23.366 23.7847C23.7368 24.0199 24.105 24.3161 24.4665 24.5813C24.6455 24.7126 24.7655 24.9165 24.9979 24.9988V24.9611C24.8758 24.8055 24.8443 24.592 24.7322 24.4296L24.2388 23.9363C23.7564 23.2962 23.1439 22.7339 22.4929 22.267C21.9738 21.8945 20.812 21.3912 20.5956 20.7875L20.5576 20.7496C20.9256 20.708 21.3564 20.575 21.6962 20.4838C22.2669 20.3309 22.7769 20.3704 23.366 20.2184L24.1629 19.9907V19.839C23.8651 19.5335 23.6527 19.1291 23.3281 18.8526C22.4781 18.1292 21.5508 17.4065 20.5958 16.8037C20.0659 16.4697 19.4114 16.2525 18.8499 15.9692C18.661 15.8737 18.3292 15.8241 18.2046 15.6654C17.9095 15.2898 17.749 14.8134 17.5217 14.3757C17.0453 13.4585 16.5775 12.4569 16.1555 11.4919C15.8676 10.8339 15.6795 10.1852 15.3205 9.59489C13.5972 6.76242 11.7424 5.05306 8.86906 3.37267C8.25754 3.01528 7.52135 2.87431 6.74335 2.68958C6.32614 2.6645 5.90855 2.63903 5.49115 2.61356C5.23615 2.50739 4.97124 2.19569 4.7322 2.04442C3.78031 1.44319 1.33854 0.135555 0.633663 1.85483C0.188448 2.94003 1.29905 3.99858 1.69603 4.54867C1.97495 4.93405 2.33186 5.36669 2.53103 5.8005C2.66212 6.08575 2.68468 6.37178 2.79691 6.67336C3.07252 7.41653 3.31273 8.22503 3.66964 8.91161C3.84994 9.25928 4.04872 9.62522 4.27687 9.93594C4.41652 10.1267 4.65635 10.2107 4.69408 10.5051C4.4599 10.8329 4.44648 11.342 4.3148 11.7573C3.72157 13.6269 3.94544 15.9509 4.80825 17.3346C5.07277 17.7596 5.69654 18.6706 6.5539 18.321C7.3039 18.0157 7.13644 17.0691 7.35097 16.2342C7.3994 16.045 7.36964 15.9058 7.46475 15.779V15.8169L8.14804 17.1827C8.65374 17.9968 9.55078 18.8475 10.3113 19.4215C10.7055 19.7192 11.016 20.2337 11.5258 20.4079V20.3698H11.4878C11.389 20.216 11.2344 20.1522 11.1084 20.0286C10.8113 19.7375 10.4811 19.3756 10.2356 19.0422C9.54398 18.1036 8.93285 17.0763 8.37599 16.0071C8.10992 15.4963 7.87865 14.9332 7.65459 14.4134C7.56823 14.2131 7.5694 13.91 7.38929 13.8064C7.14363 14.1871 6.78205 14.4951 6.59222 14.9446C6.2886 15.6633 6.24951 16.5399 6.13689 17.4487C6.07037 17.4724 6.09994 17.4561 6.06084 17.4864C5.53219 17.3591 5.34663 16.8152 5.14999 16.3483C4.65323 15.1681 4.56085 13.2679 4.99808 11.9094C5.11128 11.5576 5.62244 10.4508 5.41549 10.1259C5.31668 9.80197 4.99069 9.61453 4.80845 9.367C4.58263 9.06094 4.3574 8.65806 4.20082 8.30456C3.79431 7.38464 3.60448 6.35155 3.17638 5.42133C2.97157 4.97664 2.62555 4.5265 2.34139 4.13139C2.02688 3.69331 1.67444 3.37072 1.43054 2.84125C1.34379 2.65303 1.22611 2.35164 1.35449 2.15817C1.39533 2.02769 1.45329 1.97325 1.58225 1.93067C1.80242 1.76092 2.41549 1.98706 2.64462 2.08214C3.25321 2.33492 3.76125 2.57564 4.27687 2.91708C4.52408 3.08119 4.7746 3.39833 5.07375 3.48622H5.41529C5.94959 3.60892 6.54807 3.52414 7.04735 3.67581C7.92961 3.94375 8.72026 4.36083 9.43817 4.81408C11.6255 6.19503 13.4142 8.16047 14.6376 10.5053C14.8344 10.8829 14.9196 11.243 15.0929 11.6436C15.4426 12.4511 15.8832 13.2819 16.2311 14.0718C16.5785 14.8597 16.917 15.6547 17.4079 16.3104C17.666 16.655 18.6626 16.8399 19.1158 17.0314C19.4332 17.1654 19.9535 17.3054 20.2544 17.4864C20.8288 17.8329 21.3854 18.2453 21.9244 18.6249C22.1934 18.8145 23.0214 19.2308 23.0626 19.5736V19.5736ZM6.09838 5.11839C5.82005 5.11314 5.62321 5.14872 5.4151 5.19403V5.23194H5.45302C5.58587 5.50455 5.82024 5.68033 5.98421 5.91503C6.11063 6.18083 6.23725 6.44625 6.36388 6.71167L6.40161 6.67414C6.63676 6.50828 6.74432 6.24364 6.74296 5.83919C6.64882 5.74022 6.63501 5.61617 6.55332 5.49794C6.44518 5.34025 6.23531 5.25061 6.09838 5.11839Z" fill="#00618A"/>
</svg>
