<svg width="27" height="27" viewBox="0 0 27 27" fill="none" xmlns="http://www.w3.org/2000/svg">
<path d="M13.7944 5.71151C10.3563 5.71151 8.20826 7.42936 7.34808 10.8665C8.63694 9.14842 10.1416 8.50417 11.8601 8.93374C12.8414 9.17822 13.5426 9.88953 14.3192 10.6778C15.5831 11.96 17.046 13.4444 20.2408 13.4444C23.6787 13.4444 25.8269 11.7264 26.6871 8.28849C25.398 10.0075 23.8936 10.6518 22.1749 10.2222C21.1938 9.97753 20.4934 9.26643 19.7158 8.47819C18.4527 7.19595 16.9902 5.71151 13.7944 5.71151V5.71151ZM7.34808 13.4444C3.91016 13.4444 1.76192 15.1625 0.901733 18.6004C2.1906 16.8813 3.69501 16.2371 5.41377 16.6667C6.39503 16.9114 7.09627 17.6225 7.87285 18.4107C9.13674 19.6929 10.5997 21.1774 13.7944 21.1774C17.2323 21.1774 19.3806 19.4595 20.2408 16.0224C18.9517 17.7405 17.4473 18.3847 15.7285 17.9552C14.7475 17.7107 14.047 16.9994 13.2694 16.2111C12.0064 14.9289 10.5439 13.4444 7.34808 13.4444Z" fill="#38B2AC"/>
</svg>
