<svg width="54" height="54" viewBox="0 0 54 54" fill="none" xmlns="http://www.w3.org/2000/svg">
<path d="M39.5924 38.9747C39.9197 36.2802 39.8217 35.8846 41.8504 36.3214L42.3653 36.366C43.9254 36.4361 45.9662 36.1177 47.1652 35.5666C49.7463 34.3817 51.2764 32.4039 48.732 32.9232C42.9269 34.1082 42.5279 32.1635 42.5279 32.1635C48.6578 23.1658 51.2201 11.7438 49.008 8.9478C42.9752 1.32197 32.5329 4.92804 32.3582 5.02126L32.3023 5.03157C31.1554 4.79606 29.8717 4.65541 28.4296 4.63231C25.8026 4.58942 23.8094 5.31368 22.2973 6.44793C22.2973 6.44793 3.66839 -1.1449 4.53515 15.9966C4.71942 19.6431 9.81825 43.5888 15.9002 36.3561C18.1231 33.7114 20.2711 31.4751 20.2711 31.4751C21.3375 32.1759 22.6149 32.5339 23.9541 32.4052L24.0579 32.3177C24.0254 32.6461 24.0395 32.9674 24.0991 33.3476C22.5328 35.0795 22.9931 35.3835 19.8608 36.0211C16.6915 36.667 18.5534 37.8174 19.7687 38.1181C21.2425 38.4827 24.6516 38.999 26.9554 35.8091L26.8637 36.1729C27.4782 36.6596 27.4369 39.6693 27.5237 41.8194C27.6108 43.9699 27.7563 45.9765 28.1995 47.1598C28.6427 48.3427 29.1655 51.3899 33.282 50.5172C36.7224 49.7896 39.3527 48.7399 39.5924 38.9747Z" fill="black"/>
<path d="M31.9417 52.645C30.121 52.645 28.9353 51.9484 28.2153 51.2757C27.1284 50.261 26.6973 48.954 26.4397 48.1732L26.3284 47.8474C25.8097 46.4624 25.6338 44.4682 25.5296 41.9002C25.5137 41.5146 25.5029 41.1174 25.4908 40.6963C25.482 40.3882 25.4712 40.0017 25.4554 39.5975C24.7994 39.9069 24.1032 40.1246 23.3866 40.2442C22.103 40.4612 20.723 40.3911 19.2842 40.0351C18.2691 39.7839 17.2143 39.2634 16.6131 38.4596C14.8608 39.9778 13.1894 39.772 12.2789 39.4713C10.6725 38.9413 9.23499 37.4519 7.88378 34.9191C6.92113 33.1146 5.99017 30.7636 5.11632 27.9309C3.59459 22.998 2.62777 17.8023 2.54189 16.0964C2.27173 10.7572 3.72467 6.93874 6.85943 4.74821C11.8044 1.29269 19.2967 3.32484 22.0283 4.2475C23.8636 3.15326 26.0228 2.62079 28.4625 2.65914C29.7729 2.68018 31.0207 2.79401 32.1797 2.99859C33.3888 2.62243 35.7768 2.08254 38.5105 2.11636C43.5472 2.17575 47.7209 4.11757 50.5797 7.73189C52.6201 10.3105 51.6112 15.7256 50.8286 18.7241C49.7271 22.9419 47.7972 27.4277 45.4267 31.3328C46.0704 31.3373 47.003 31.261 48.3288 30.9901C50.9445 30.4559 51.7095 31.8434 51.9172 32.4646C52.7489 34.9566 49.1334 36.8399 48.0057 37.3579C46.5607 38.0215 44.2047 38.4257 42.2752 38.3383L42.191 38.3329L41.6841 38.2888L41.634 38.707L41.5857 39.1158C41.456 44.0648 40.7414 47.199 39.271 49.2699C37.7297 51.4411 35.5876 52.0494 33.7006 52.4495C33.0569 52.5856 32.472 52.645 31.9417 52.645V52.645ZM28.1103 34.6328C29.2855 35.5633 29.3885 37.3142 29.4806 40.5862C29.4923 40.9945 29.5032 41.381 29.5177 41.7419C29.5619 42.8349 29.6658 45.3941 30.071 46.4756C30.1281 46.6286 30.1794 46.7837 30.2336 46.9482C30.6851 48.3159 30.9115 49.0018 32.8639 48.589C34.5028 48.2413 35.3453 47.9295 36.0049 47.0006C36.9634 45.6502 37.4995 42.9338 37.5979 38.9269L39.592 38.9747L37.6117 38.7396L37.67 38.2504C37.8597 36.6378 37.9965 35.473 39.0859 34.7025C39.9601 34.0847 40.9561 34.1445 41.7495 34.286C40.8778 33.6343 40.6368 32.87 40.5726 32.5566L40.4062 31.7461L40.8736 31.0602C43.5656 27.1089 45.7852 22.2527 46.9643 17.7363C48.1758 13.0958 47.8064 10.6314 47.437 10.1654C42.5471 3.98394 34.0675 6.53619 33.182 6.82573L33.0323 6.90575L32.2819 7.04392L31.8975 6.96514C30.8377 6.74737 29.6603 6.62693 28.3983 6.60672C26.4155 6.57372 24.8158 7.03732 23.5042 8.02184L22.5941 8.70445L21.5381 8.27426C19.2817 7.36151 12.6545 5.52651 9.15744 7.97689C7.2163 9.33715 6.33203 12.0024 6.52882 15.8989C6.59385 17.1853 7.47729 22.0551 8.93481 26.7781C10.9489 33.3051 12.7792 35.4734 13.5434 35.7254C13.6768 35.77 14.0228 35.5039 14.3672 35.0948C15.803 33.3919 17.2898 31.7317 18.8256 30.1165L19.9805 28.9142L21.3767 29.8319C21.9395 30.2019 22.5603 30.4118 23.1978 30.4514L26.5277 27.6418L26.0453 32.512C26.0344 32.6213 26.029 32.7702 26.0724 33.0465L26.2175 33.9696L25.5879 34.6658L25.5154 34.7467L27.3448 35.5819L28.1103 34.6328V34.6328Z" fill="black"/>
<path d="M48.732 32.9232C42.9265 34.1082 42.5275 32.1635 42.5275 32.1635C48.6573 23.1654 51.2197 11.743 49.0084 8.9478C42.9757 1.32239 32.5324 4.92845 32.3582 5.02208L32.3019 5.03198C31.155 4.79647 29.8713 4.65624 28.4284 4.63314C25.8014 4.59066 23.809 5.31451 22.2968 6.44875C22.2968 6.44875 3.66755 -1.14366 4.53389 15.9974C4.71817 19.6443 9.817 43.5901 15.8989 36.3573C18.1219 33.7127 20.2694 31.4763 20.2694 31.4763C21.3363 32.1771 22.6133 32.5351 23.952 32.4064L24.0562 32.319C24.0237 32.6473 24.0387 32.9686 24.0979 33.3489C22.5311 35.0808 22.9914 35.3847 19.8591 36.0224C16.6898 36.6683 18.5517 37.8186 19.7674 38.1193C21.2408 38.4839 24.6503 39.0003 26.9537 35.8104L26.8616 36.1742C27.4757 36.6609 27.9068 39.3385 27.8347 41.7658C27.7621 44.1931 27.7138 45.8598 28.1978 47.1615C28.6814 48.4632 29.1634 51.3916 33.2808 50.5188C36.7211 49.7896 38.5039 47.8994 38.7523 44.7466C38.9283 42.5049 39.3264 42.8365 39.3519 40.8324L39.6716 39.8838C40.0402 36.8452 39.73 35.8652 41.85 36.321L42.3649 36.3655C43.925 36.4357 45.9666 36.1172 47.1652 35.5662C49.7459 34.3821 51.2764 32.4039 48.732 32.9232V32.9232Z" fill="#336791"/>
<path d="M32.1497 51.4287C28.7177 51.4287 27.6304 48.7399 27.1855 47.6403C26.5343 46.0289 26.3938 39.7753 26.5389 34.6469C26.5411 34.5604 26.5605 34.4752 26.5961 34.3961C26.6317 34.3171 26.6827 34.2458 26.7463 34.1864C26.8098 34.127 26.8846 34.0806 26.9664 34.0499C27.0482 34.0192 27.1352 34.0048 27.2226 34.0076C27.31 34.0099 27.396 34.0293 27.4757 34.0645C27.5555 34.0998 27.6274 34.1502 27.6874 34.213C27.7474 34.2758 27.7944 34.3497 27.8255 34.4304C27.8566 34.5112 27.8714 34.5972 27.8689 34.6836C27.7017 40.5985 27.9389 45.9588 28.4209 47.1516C29.173 49.0113 30.3136 50.638 33.5384 49.9546C36.5998 49.305 37.7463 48.1567 38.2571 45.2279C38.649 42.9805 39.424 36.5866 39.5195 35.3249C39.5258 35.2387 39.5494 35.1546 39.5887 35.0774C39.628 35.0002 39.6823 34.9314 39.7485 34.875C39.8148 34.8186 39.8916 34.7757 39.9746 34.7487C40.0577 34.7217 40.1452 34.7112 40.2324 34.7178C40.4082 34.731 40.5716 34.8126 40.6867 34.9449C40.8017 35.0771 40.8591 35.2491 40.8461 35.4231C40.7464 36.7368 39.9751 43.1182 39.5682 45.4519C38.9654 48.9111 37.4066 50.4801 33.8174 51.2414C33.2074 51.3705 32.6533 51.4283 32.1497 51.4287V51.4287ZM13.5404 38.2958C13.2405 38.2948 12.9426 38.2461 12.6583 38.1515C10.429 37.4156 8.3057 33.824 6.34705 27.4751C4.85617 22.6424 3.91145 17.5982 3.82848 15.9587C3.58292 11.0983 4.84783 7.65971 7.58903 5.73892C13.0118 1.93776 22.1342 5.55744 22.5199 5.71335C22.6833 5.77936 22.8134 5.90688 22.8818 6.06784C22.9501 6.22881 22.951 6.41004 22.8843 6.57166C22.8175 6.73328 22.6886 6.86206 22.5259 6.92966C22.3632 6.99727 22.18 6.99816 22.0167 6.93214C21.9287 6.89667 13.1811 3.4296 8.35531 6.81459C6.01143 8.45863 4.93538 11.5132 5.15676 15.8931C5.22639 17.2744 6.10899 22.1974 7.61904 27.0907C9.36757 32.7586 11.3575 36.335 13.0789 36.903C13.3491 36.9921 14.1712 37.263 15.3465 35.8648C16.7171 34.2364 18.139 32.651 19.6103 31.1109C19.7334 30.9894 19.8996 30.9205 20.0735 30.9187C20.2474 30.917 20.415 30.9827 20.5405 31.1017C20.6661 31.2207 20.7395 31.3836 20.7452 31.5555C20.7509 31.7275 20.6883 31.8948 20.5708 32.0216C20.5508 32.0422 18.5501 34.1115 16.3696 36.7066C15.3369 37.9353 14.3472 38.2958 13.5404 38.2958V38.2958ZM42.4862 32.7504C42.3656 32.7502 42.2473 32.7177 42.144 32.6561C42.0406 32.5946 41.9562 32.5065 41.8996 32.4011C41.8429 32.2958 41.8163 32.1772 41.8226 32.058C41.8288 31.9389 41.8677 31.8236 41.935 31.7246C48.1316 22.628 50.3066 11.6366 48.4439 9.28147C46.0992 6.31759 42.7885 4.76966 38.6031 4.68015C35.5042 4.61416 33.0411 5.397 32.6383 5.53352L32.537 5.57435C32.1322 5.70015 31.8216 5.48072 31.7045 5.22418C31.6377 5.07719 31.6275 4.91111 31.676 4.75725C31.7245 4.60339 31.8281 4.47239 31.9675 4.38896C31.9867 4.37783 32.0476 4.35226 32.1464 4.31637L32.1376 4.31885L32.1464 4.31596C32.8305 4.06808 35.3312 3.32607 38.4284 3.36113C43.0595 3.4098 46.885 5.17633 49.4907 8.47059C50.7235 10.0292 50.7265 13.6201 49.4987 18.3228C48.2471 23.1176 45.892 28.2703 43.0378 32.4604C42.9102 32.6489 42.7001 32.7504 42.4862 32.7504ZM42.8031 36.9615C41.7449 36.9615 40.7965 36.8139 40.2286 36.4773C39.645 36.1313 39.5336 35.6611 39.519 35.4115C39.3598 32.644 40.9032 32.1622 41.6903 31.9424C41.5807 31.7783 41.4247 31.5852 41.2634 31.386C40.8044 30.8185 40.1757 30.0414 39.6912 28.8791C39.6153 28.6976 39.3777 28.2757 39.1026 27.787C37.6104 25.1398 34.5057 19.6315 36.5002 16.8108C37.4232 15.5054 39.2614 14.9915 41.9697 15.2781C41.1729 12.8768 37.379 5.36524 28.3767 5.21923C25.6692 5.17468 23.4488 5.99835 21.7803 7.66507C18.0448 11.3973 18.1798 18.1504 18.1819 18.2181C18.1842 18.3045 18.1693 18.3905 18.138 18.4711C18.1067 18.5518 18.0597 18.6256 17.9995 18.6883C17.9394 18.751 17.8674 18.8014 17.7876 18.8365C17.7078 18.8717 17.6218 18.891 17.5345 18.8933C17.4471 18.8955 17.3602 18.8808 17.2786 18.8498C17.1971 18.8188 17.1225 18.7723 17.0591 18.7128C16.9957 18.6533 16.9448 18.5821 16.9093 18.5031C16.8737 18.4242 16.8543 18.3391 16.852 18.2527C16.8436 17.9529 16.7044 10.8661 20.8351 6.7387C22.7684 4.80719 25.3132 3.8536 28.3988 3.90351C34.158 3.99713 37.8652 6.89378 39.9606 9.30704C42.2448 11.9372 43.3646 14.8384 43.4568 15.8069C43.5256 16.527 43.0032 16.671 42.8977 16.6924L42.6576 16.6978C39.9997 16.2767 38.2946 16.5691 37.5896 17.5656C36.0724 19.7107 39.0096 24.9212 40.2636 27.1464C40.5838 27.7139 40.8148 28.1243 40.9207 28.3776C41.3326 29.3658 41.87 30.0299 42.3015 30.5636C42.6813 31.033 43.0103 31.44 43.1278 31.9177C43.1824 32.0125 43.9575 33.1468 48.5564 32.2076C49.7092 31.9725 50.4004 32.1734 50.6118 32.8057C51.0275 34.0492 48.6953 35.4998 47.4041 36.0929C46.2472 36.625 44.4007 36.9615 42.8031 36.9615V36.9615ZM40.8452 35.3031C40.9912 35.4487 41.7212 35.6998 43.2329 35.6355C44.577 35.5786 45.9945 35.2895 46.845 34.8989C47.9327 34.399 48.659 33.8401 49.0351 33.4586L48.8266 33.4965C45.8861 34.0971 43.8061 34.017 42.6446 33.2585C42.5666 33.2075 42.4914 33.1523 42.4195 33.0931C42.2936 33.1422 42.1773 33.1744 42.0943 33.1975C41.4356 33.3802 40.7544 33.5695 40.8452 35.3031ZM21.8499 38.9801C21.1195 38.9801 20.3507 38.8815 19.5656 38.6872C18.7523 38.486 17.381 37.8801 17.4019 36.8848C17.4256 35.7683 19.067 35.4334 19.6849 35.3076C21.917 34.8527 22.0625 34.6704 22.76 33.7939C22.9635 33.5386 23.2165 33.2206 23.5617 32.8395C24.0741 32.272 24.634 31.9845 25.2261 31.9845C25.6384 31.9845 25.9765 32.1227 26.2 32.2146C26.9121 32.5066 27.5061 33.2128 27.7505 34.0571C27.971 34.8189 27.8655 35.5522 27.4545 36.1218C26.1049 37.9914 24.1667 38.9801 21.8499 38.9801ZM18.839 36.9413C19.0395 37.0948 19.4414 37.2997 19.8888 37.4103C20.5687 37.5786 21.2283 37.6639 21.8503 37.6639C23.7456 37.6639 25.2673 36.8877 26.3726 35.3567C26.6031 35.0374 26.5339 34.632 26.4722 34.4188C26.343 33.9721 26.0219 33.5658 25.6913 33.4301C25.5121 33.3567 25.3632 33.3006 25.2265 33.3006C25.1531 33.3006 24.9296 33.3006 24.5536 33.7168C24.2941 34.0055 24.0446 34.3029 23.8056 34.6085C22.9368 35.6998 22.5386 36.0702 19.9538 36.5969C19.323 36.7248 18.9995 36.8551 18.839 36.9413ZM23.9541 33.9057C23.7953 33.9054 23.6418 33.849 23.5214 33.7466C23.4009 33.6442 23.3215 33.5025 23.2974 33.3472C23.2809 33.238 23.2698 33.128 23.2641 33.0177C21.5697 32.9863 19.935 32.267 18.6939 30.9859C17.1246 29.3662 16.4105 27.1221 16.7348 24.8293C17.0871 22.3393 16.9554 20.1413 16.8845 18.9605C16.8649 18.6322 16.8507 18.395 16.8516 18.2309C16.8528 18.0226 16.857 17.4703 18.7231 16.5344C19.3868 16.2016 20.7176 15.6209 22.1713 15.472C24.5798 15.2257 26.1674 16.287 26.6427 18.4606C27.9256 24.329 26.7445 26.9245 25.8819 28.8201C25.7214 29.1732 25.5696 29.5065 25.4483 29.8294L25.3411 30.114C24.8854 31.3229 24.4915 32.3672 24.6124 33.1472C24.6256 33.2326 24.6218 33.3198 24.601 33.4037C24.5802 33.4877 24.5429 33.5667 24.4912 33.6364C24.4395 33.7061 24.3745 33.765 24.2997 33.8098C24.225 33.8546 24.1421 33.8843 24.0558 33.8974L23.9541 33.9057ZM18.1861 18.4132L18.2119 18.8829C18.2853 20.1096 18.4221 22.3921 18.0518 25.012C17.7846 26.9031 18.3683 28.7488 19.654 30.0752C20.67 31.1237 22.0071 31.7024 23.3812 31.7024H23.4096C23.5634 31.061 23.819 30.3838 24.0941 29.6541L24.2005 29.3712C24.3376 29.0066 24.4981 28.6535 24.6682 28.2798C25.4983 26.4551 26.5318 24.1838 25.3415 18.739C25.106 17.6604 24.5344 17.0364 23.5951 16.8306C21.6656 16.4091 18.7902 17.8448 18.1861 18.4132V18.4132ZM22.2009 18.1339C22.1676 18.3665 22.6316 18.9877 23.237 19.0706C23.8411 19.1543 24.358 18.6685 24.391 18.4358C24.4239 18.2032 23.9603 17.9467 23.355 17.8634C22.75 17.78 22.2331 17.9013 22.2009 18.1339ZM23.3758 19.2995L23.2061 19.288C22.8309 19.2364 22.4515 19.0026 22.1918 18.6619C22.1005 18.5423 21.9516 18.3105 21.9812 18.1034C22.0233 17.7998 22.3977 17.6179 22.9818 17.6179C23.1123 17.6179 23.2482 17.6274 23.385 17.6464C23.7043 17.6901 24.0008 17.7813 24.2196 17.9021C24.599 18.1117 24.627 18.3455 24.6099 18.4664C24.5632 18.8017 24.0241 19.2995 23.3758 19.2995V19.2995ZM22.4215 18.1727C22.4403 18.3162 22.7996 18.7897 23.2674 18.8537L23.3762 18.8611C23.8081 18.8611 24.1308 18.5249 24.1688 18.4148C24.1287 18.3397 23.8511 18.1533 23.3245 18.0807C23.2112 18.0646 23.0968 18.0565 22.9822 18.0564C22.6437 18.0564 22.464 18.1319 22.4215 18.1727V18.1727ZM40.6009 17.6592C40.6339 17.8918 40.1703 18.513 39.5653 18.5963C38.9608 18.6796 38.4434 18.1941 38.4101 17.9615C38.3784 17.7289 38.842 17.4719 39.4465 17.389C40.051 17.3053 40.5676 17.427 40.6009 17.6592V17.6592ZM39.4257 18.7151C38.8436 18.7151 38.3413 18.2671 38.3 17.9764C38.252 17.6274 38.8328 17.3622 39.4307 17.2802C39.5624 17.262 39.6929 17.2529 39.8184 17.2529C40.3345 17.2529 40.6764 17.4026 40.7106 17.6443C40.7327 17.8007 40.6114 18.042 40.4025 18.2597C40.2645 18.4028 39.9747 18.6507 39.5799 18.7048L39.4257 18.7151V18.7151ZM39.8188 17.4724C39.7037 17.4724 39.5837 17.481 39.4619 17.4975C38.8612 17.5804 38.5026 17.8188 38.5201 17.9467C38.5401 18.0873 38.9237 18.4961 39.4261 18.4961L39.5499 18.4874C39.878 18.4424 40.1244 18.2304 40.242 18.1084C40.4267 17.9166 40.5 17.7359 40.4913 17.6745C40.4796 17.5928 40.2578 17.4724 39.8188 17.4724ZM41.4719 31.0185C41.3513 31.0186 41.2331 30.9862 41.1297 30.9249C41.0263 30.8636 40.9418 30.7756 40.8851 30.6704C40.8284 30.5652 40.8016 30.4467 40.8078 30.3276C40.8139 30.2086 40.8526 30.0934 40.9199 29.9944C42.3365 27.9012 42.0772 25.7668 41.8267 23.7024C41.7195 22.8231 41.6094 21.9136 41.6378 21.0409C41.667 20.143 41.7825 19.4022 41.8938 18.6858C42.0259 17.837 42.151 17.0352 42.0993 16.0832C42.0946 15.9969 42.1071 15.9106 42.1361 15.8291C42.1652 15.7476 42.2101 15.6725 42.2685 15.6082C42.3268 15.5439 42.3974 15.4916 42.4762 15.4543C42.5549 15.417 42.6404 15.3954 42.7276 15.3907C42.8148 15.3861 42.9021 15.3984 42.9845 15.4271C43.0669 15.4559 43.1427 15.5004 43.2077 15.5581C43.2727 15.6158 43.3256 15.6856 43.3633 15.7635C43.401 15.8415 43.4229 15.926 43.4276 16.0123C43.4868 17.1003 43.3455 18.0077 43.2087 18.8858C43.1032 19.5635 42.994 20.2642 42.9677 21.083C42.9423 21.8559 43.0419 22.6767 43.1474 23.5453C43.4142 25.7404 43.7165 28.2283 42.0255 30.7265C41.9646 30.8165 41.8822 30.8902 41.7857 30.9411C41.6891 30.9921 41.5813 31.0186 41.4719 31.0185V31.0185Z" fill="white"/>
</svg>
