<svg width="31" height="32" viewBox="0 0 31 32" fill="none" xmlns="http://www.w3.org/2000/svg">
<path fill-rule="evenodd" clip-rule="evenodd" d="M19.7697 19.4076C19.8828 19.1167 20.0111 18.8303 20.1067 18.5337C20.6471 16.858 21.1823 15.1809 21.7139 13.5024C21.9182 12.8576 22.1421 12.2227 22.5441 11.6685C23.1799 10.7928 24.0656 10.334 25.1138 10.1737C25.5266 10.1124 25.9434 10.0804 26.3608 10.0779C27.6047 10.0661 28.8492 10.0743 30.0934 10.0755C30.1595 10.0755 30.2256 10.0823 30.3194 10.0878C30.2889 10.1596 30.2724 10.2117 30.246 10.2587C29.7842 11.0837 29.3315 11.9136 28.856 12.7303C28.0282 14.1522 27.199 15.5736 26.3452 16.9799C25.7975 17.8816 25.2035 18.7554 24.5297 19.5709C24.0325 20.1726 23.5091 20.7477 22.8419 21.1694C22.3873 21.4568 21.9017 21.6249 21.3504 21.622C19.3953 21.6114 17.4402 21.6192 15.4851 21.6164C14.9039 21.6154 14.4063 21.3942 13.984 21.0018C13.3786 20.4396 13.0173 19.7239 12.7216 18.9693C12.1822 17.5916 11.8801 16.1476 11.5334 14.716C11.3709 14.0459 11.1862 13.3811 11.0102 12.7143C10.9989 12.6711 10.9767 12.6307 10.9512 12.5686L10.8149 12.6966C10.0525 13.4538 9.38105 14.2882 8.7802 15.1753C8.61653 15.417 8.5615 15.7358 8.4701 16.0231C8.13378 17.0786 7.82722 18.1441 7.46302 19.1896C7.11419 20.1912 6.48878 20.9878 5.51123 21.4587C4.94439 21.7334 4.32501 21.8827 3.69523 21.8966C2.75524 21.9174 1.81476 21.9198 0.874528 21.9283C0.649684 21.9304 0.639292 21.912 0.697865 21.6945C1.10103 20.1981 1.61188 18.7398 2.25193 17.3284C2.91182 15.8723 3.68909 14.4837 4.6683 13.2155C5.33504 12.3521 6.07145 11.5554 6.99302 10.9531C7.46043 10.6478 7.95735 10.4065 8.52277 10.343C8.61582 10.3324 8.71006 10.3258 8.80359 10.3258C10.8059 10.3248 12.8083 10.3451 14.8104 10.3166C15.8843 10.3012 16.6618 10.7546 17.244 11.6187C17.606 12.1561 17.8651 12.7428 18.0831 13.3489C18.5227 14.5715 18.7959 15.8392 19.1046 17.0979C19.2813 17.8183 19.478 18.5337 19.6665 19.2512C19.6807 19.3051 19.7036 19.3566 19.7227 19.409L19.7697 19.4076V19.4076Z" fill="#1384C8"/>
</svg>
