<svg width="41" height="55" viewBox="0 0 41 55" fill="none" xmlns="http://www.w3.org/2000/svg">
<path d="M13.1212 42.5902C13.1212 42.5902 11.0102 43.8047 14.6235 44.2157C19.001 44.7097 21.2382 44.6389 26.0622 43.7356C26.0622 43.7356 27.3305 44.5224 29.1017 45.2038C18.2876 49.7889 4.62727 44.9382 13.1212 42.5902Z" fill="#5382A1"/>
<path d="M11.8001 36.6069C11.8001 36.6069 9.43235 38.3408 13.0484 38.7108C17.7245 39.1881 21.4174 39.2271 27.8074 38.0098C27.8074 38.0098 28.6912 38.8962 30.081 39.381C17.0061 43.1634 2.44301 39.6793 11.8001 36.6069Z" fill="#5382A1"/>
<path d="M22.9399 26.4572C25.6045 29.4921 22.2398 32.2232 22.2398 32.2232C22.2398 32.2232 29.0057 28.7679 25.8984 24.4409C22.9964 20.4058 20.7709 18.4009 32.8188 11.4882C32.8188 11.4882 13.9075 16.1609 22.9399 26.4572Z" fill="#E76F00"/>
<path d="M37.2424 47.0159C37.2424 47.0159 38.8046 48.2893 35.522 49.2744C29.2799 51.1452 9.54193 51.7101 4.05879 49.349C2.08774 48.5007 5.78401 47.3235 6.94672 47.0764C8.15931 46.8163 8.85225 46.8648 8.85225 46.8648C6.66025 45.3371 -5.31597 49.8644 2.76893 51.1609C24.8176 54.6983 42.9616 49.568 37.2424 47.0159Z" fill="#5382A1"/>
<path d="M14.1366 30.4075C14.1366 30.4075 4.09663 32.7666 10.5812 33.6233C13.3192 33.986 18.7773 33.9039 23.8614 33.4825C28.0165 33.1358 32.1886 32.3985 32.1886 32.3985C32.1886 32.3985 30.7235 33.0193 29.6635 33.7353C19.4681 36.388 -0.227675 35.1539 5.44247 32.4405C10.2377 30.1473 14.1366 30.4075 14.1366 30.4075Z" fill="#5382A1"/>
<path d="M32.1471 40.367C42.5112 35.039 37.7192 29.9189 34.3745 30.6087C33.5547 30.7775 33.1892 30.9237 33.1892 30.9237C33.1892 30.9237 33.4935 30.4521 34.0748 30.2479C40.6917 27.9465 45.7806 37.0357 31.9388 40.6356C31.9388 40.6357 32.0991 40.4939 32.1471 40.367Z" fill="#5382A1"/>
<path d="M25.8987 0.326077C25.8987 0.326077 31.6385 6.00642 20.4547 14.7412C11.4864 21.748 18.4096 25.743 20.451 30.3076C15.216 25.6349 11.3743 21.5216 13.9516 17.6932C17.7346 12.0736 28.2145 9.34896 25.8987 0.326077Z" fill="#E76F00"/>
<path d="M15.1548 54.8047C25.1031 55.4347 40.3798 54.4551 40.7416 49.7982C40.7416 49.7982 40.0461 51.5636 32.5199 52.9656C24.0288 54.5465 13.5563 54.3619 7.34488 53.3488C7.34503 53.3486 8.61643 54.3899 15.1548 54.8047Z" fill="#5382A1"/>
</svg>
