<svg width="25" height="25" viewBox="0 0 25 25" fill="none" xmlns="http://www.w3.org/2000/svg">
<path d="M21.5682 6.13207L13.2976 1.33113C12.776 1.03413 12.0969 1.03413 11.5712 1.33113L3.21221 6.13207C2.67392 6.44163 2.293 7.02345 2.293 7.64576V17.2349C2.293 17.8572 2.68386 18.4392 3.22215 18.7504L5.43061 20.0044C6.48617 20.5242 6.85922 20.5242 7.33955 20.5242C8.90245 20.5242 9.79521 19.5794 9.79521 17.9314V8.46457C9.79521 8.33088 9.72563 8.13195 9.59434 8.13195H8.53972C8.40618 8.13195 8.10721 8.33088 8.10721 8.46438V17.9313C8.10721 18.6618 7.44627 19.3887 6.21103 18.7713L3.92904 17.4563C3.84952 17.4132 3.79344 17.3264 3.79344 17.2349V7.64576C3.79344 7.55538 3.89754 7.46463 3.97762 7.41832L12.3096 2.62563C12.3874 2.58157 12.5018 2.58157 12.5795 2.62563L20.8098 7.4172C20.8885 7.46463 20.8608 7.55257 20.8608 7.64576V17.2349C20.8608 17.3264 20.8951 17.4154 20.8173 17.4595L12.5487 22.255C12.4778 22.2976 12.3899 22.2976 12.3122 22.255L10.1915 20.9896C10.1276 20.9524 10.0516 20.9391 9.99027 20.9734C9.40022 21.3078 9.29144 21.3522 8.73796 21.544C8.6018 21.5914 8.40093 21.6738 8.81486 21.9057L11.5903 23.5471C11.8553 23.7001 12.1559 23.7806 12.4619 23.7807C12.7698 23.7807 13.0714 23.7008 13.3372 23.5471L21.5681 18.7504C22.1063 18.4369 22.3614 17.8572 22.3614 17.2349V7.64576C22.3614 7.02345 22.1063 6.44313 21.5682 6.13207V6.13207ZM15.0299 15.7154C12.8306 15.7154 12.3462 15.1088 12.1847 14.0155C12.1659 13.8978 12.0659 13.7569 11.9461 13.7569H10.8712C10.7382 13.7569 10.6313 13.9182 10.6313 14.0506C10.6313 15.4504 11.3926 17.1466 15.0301 17.1466C17.6632 17.1466 19.1728 16.1238 19.1728 14.3136C19.1728 12.5189 17.9599 12.0479 15.4063 11.71C12.8252 11.3689 12.563 11.1966 12.563 10.5921C12.563 10.0938 12.785 9.42907 14.6962 9.42907C16.4039 9.42907 17.0333 9.79545 17.2924 10.9461C17.3145 11.0543 17.4133 11.1319 17.5249 11.1319H18.6041C18.6705 11.1319 18.7339 11.1051 18.7804 11.0577C18.8254 11.0067 18.8493 10.9428 18.8433 10.8741C18.6761 8.89263 17.3593 7.9692 14.696 7.9692C12.327 7.9692 10.9138 8.96932 10.9138 10.6458C10.9138 12.4641 12.3199 12.9666 14.594 13.1914C17.3145 13.4581 17.5261 13.8556 17.5261 14.3905C17.5261 15.3196 16.78 15.7154 15.0299 15.7154Z" fill="#83CD29"/>
</svg>
